<?xml version="1.0" encoding="utf-8"?>
<!-- Generator: Adobe Illustrator 16.0.0, SVG Export Plug-In . SVG Version: 6.00 Build 0)  -->
<!DOCTYPE svg PUBLIC "-//W3C//DTD SVG 1.1//EN" "http://www.w3.org/Graphics/SVG/1.1/DTD/svg11.dtd">
<svg version="1.1" id="Layer_1" xmlns:svg="http://www.w3.org/2000/svg"
	 xmlns="http://www.w3.org/2000/svg" xmlns:xlink="http://www.w3.org/1999/xlink" x="0px" y="0px" width="640px" height="480px"
	 viewBox="0 0 640 480" enable-background="new 0 0 640 480" xml:space="preserve">
<text transform="matrix(1 0 0 1 279.5005 289.0867)" font-family="'VDS'" font-size="150">0</text>
<text transform="matrix(1 0 0 1 59.9316 410.1707)" font-family="'Verdana'" font-size="72">ZeroNet Proxy</text>
<g>
	<path d="M110.679,326.131c0,0,0.549-1.237,1.578-3.557c1.065-2.298,2.552-5.713,4.598-9.97c2.023-4.269,4.446-9.473,7.381-15.351
		c1.451-2.949,2.995-6.086,4.623-9.394c1.63-3.307,3.429-6.733,5.259-10.336c1.841-3.597,3.759-7.344,5.744-11.222
		c1.993-3.873,4.146-7.822,6.308-11.913c4.348-8.166,8.891-16.804,13.835-25.595c2.443-4.413,4.927-8.898,7.442-13.44
		c1.257-2.271,2.522-4.555,3.793-6.851c1.299-2.279,2.605-4.57,3.916-6.871c5.212-9.219,10.646-18.502,16.056-27.799
		c5.482-9.255,10.949-18.52,16.457-27.564c1.372-2.264,2.739-4.519,4.099-6.763c1.385-2.229,2.763-4.448,4.132-6.652
		c2.739-4.41,5.444-8.766,8.105-13.05c5.263-8.604,10.606-16.771,15.607-24.555c2.519-3.881,4.909-7.691,7.33-11.313
		c2.417-3.624,4.752-7.125,6.994-10.487c2.254-3.354,4.363-6.599,6.461-9.63c2.093-3.035,4.079-5.913,5.944-8.618
		c3.698-5.43,7.063-10.081,9.8-13.932c2.717-3.862,4.974-6.825,6.458-8.876c1.522-2.03,2.334-3.112,2.334-3.112l0.776,0.455
		c0,0-10.808,18.603-27.019,46.505c-16.288,27.858-38.004,65.003-59.721,102.147c-21.847,37.068-43.693,74.136-60.078,101.938
		c-16.462,27.756-27.436,46.26-27.436,46.26L110.679,326.131z"/>
</g>
<g>
	<path d="M353.615,29.28c0,0,0.813,1.082,2.336,3.111c1.488,2.05,3.745,5.013,6.465,8.874c2.74,3.848,6.104,8.5,9.805,13.928
		c1.867,2.705,3.854,5.582,5.949,8.616c2.092,3.035,4.207,6.276,6.461,9.631c2.243,3.36,4.58,6.861,6.998,10.484
		c2.41,3.628,4.81,7.433,7.327,11.315c5.011,7.777,10.339,15.954,15.604,24.556c2.662,4.285,5.367,8.64,8.107,13.049
		c1.369,2.205,2.748,4.422,4.133,6.652c1.357,2.245,2.721,4.502,4.09,6.768c5.51,9.045,10.966,18.314,16.447,27.57
		c5.408,9.298,10.833,18.587,16.046,27.805c1.308,2.302,2.61,4.595,3.907,6.876c1.271,2.296,2.536,4.58,3.794,6.851
		c2.516,4.541,5,9.026,7.444,13.438c4.947,8.789,9.474,17.437,13.832,25.597c2.16,4.092,4.322,8.035,6.305,11.915
		c1.986,3.877,3.905,7.623,5.747,11.219c1.83,3.604,3.636,7.025,5.26,10.336c1.629,3.307,3.175,6.443,4.627,9.392
		c2.938,5.876,5.359,11.081,7.388,15.348c2.048,4.255,3.534,7.669,4.603,9.966c1.03,2.318,1.579,3.556,1.579,3.556l-0.775,0.455
		c0,0-10.975-18.504-27.436-46.261c-16.386-27.801-38.232-64.869-60.079-101.937c-21.717-37.145-43.434-74.289-59.722-102.147
		c-16.211-27.903-27.018-46.506-27.018-46.506L353.615,29.28z"/>
</g>
</svg>
